Coordinates
version=1
nRows=7
nColumns=40
inDegrees=yes

Units are S.I. units (second, meters, Newtons, ...)
Angles are in degrees.

endheader
time	pelvis_tilt	pelvis_list	pelvis_rotation	pelvis_tx	pelvis_ty	pelvis_tz	hip_flexion_r	hip_adduction_r	hip_rotation_r	knee_angle_r	knee_angle_r_beta	ankle_angle_r	subtalar_angle_r	mtp_angle_r	hip_flexion_l	hip_adduction_l	hip_rotation_l	knee_angle_l	knee_angle_l_beta	ankle_angle_l	subtalar_angle_l	mtp_angle_l	lumbar_extension	lumbar_bending	lumbar_rotation	arm_flex_r	arm_add_r	arm_rot_r	elbow_flex_r	pro_sup_r	wrist_flex_r	wrist_dev_r	arm_flex_l	arm_add_l	arm_rot_l	elbow_flex_l	pro_sup_l	wrist_flex_l	wrist_dev_l
     32.27000000	     -3.61904810	     -6.12960311	     -3.60496663	      1.03867718	      0.93638058	      0.41082910	     31.81415973	     -4.05901119	     -4.87099909	     54.76289999	     54.76289999	     -1.03269280	    -15.82405990	      3.26043263	     11.36975117	     -7.40218987	     -9.52833937	     20.87655268	     20.87655268	     13.98639277	    -13.67432021	      2.47421282	    -11.34730817	      6.05466189	      1.81233384	     -0.77576943	    -13.36209473	     -1.17417410	     28.41100463	     46.23986811	      0.00000000	      0.00000000	     12.62378892	    -19.57385994	     -6.40960226	     62.37755599	     46.73690536	      0.00000000	      0.00000000
     32.28371429	     -3.79288945	     -6.16428440	     -4.17107527	      1.03798088	      0.93655429	      0.41134912	     31.85519010	     -3.65199222	     -5.18767679	     51.09491345	     51.09491345	     -1.13900564	    -15.01558633	      1.17211802	     10.81295660	     -7.44149773	     -9.99332798	     20.32784761	     20.32784761	     13.95564302	    -13.73874876	      2.16825486	    -11.41261234	      6.00594603	      1.50912010	     -1.87342967	    -13.32890778	     -1.45998152	     29.73218734	     46.18562923	      0.00000000	      0.00000000	     12.03942987	    -19.41921801	     -9.33535006	     65.67161970	     47.02422001	      0.00000000	      0.00000000
     32.29742857	     -3.98581462	     -6.22314031	     -4.68962108	      1.03725556	      0.93661635	      0.41196113	     31.70756216	     -3.20482011	     -5.61839180	     46.95756081	     46.95756081	     -1.24134720	    -13.83158755	     -0.90801816	     10.32000939	     -7.51331783	    -10.40275981	     19.84546040	     19.84546040	     13.97866751	    -13.82395076	      1.95437096	    -11.38905713	      6.03718717	      1.43098142	     -2.54815662	    -13.28489773	     -1.31128640	     29.72543902	     46.16279561	      0.00000000	      0.00000000	     12.30353595	    -19.45432973	    -10.71303181	     66.99513792	     47.17069771	      0.00000000	      0.00000000
     32.31114286	     -4.18982552	     -6.25906540	     -5.17674726	      1.03649703	      0.93652503	      0.41270743	     31.44501838	     -2.77746869	     -6.15306945	     42.56845211	     42.56845211	     -0.80458576	    -11.83329315	     -1.53591203	      9.88424364	     -7.57461407	    -10.81030300	     19.43759778	     19.43759778	     14.10367390	    -13.83433538	      1.88779375	    -11.34357190	      6.05003408	      1.55883733	     -3.22276168	    -13.20365676	     -1.31041706	     29.63962678	     46.15822064	      0.00000000	      0.00000000	     12.85844729	    -19.64114476	    -11.23986493	     67.92399324	     47.23491298	      0.00000000	      0.00000000
     32.32485714	     -4.49436649	     -6.35143752	     -5.62203872	      1.03570903	      0.93618333	      0.41362648	     31.08075362	     -2.18801943	     -6.68412083	     37.80454733	     37.80454733	     -0.37295791	     -9.63896016	     -1.69857029	      9.62826976	     -7.71943242	    -11.11376909	     19.15496083	     19.15496083	     14.24287939	    -13.91703208	      1.80397241	    -11.16381044	      6.16149728	      1.58212730	     -3.77754164	    -13.14614940	     -1.35647959	     29.59918735	     46.15719548	      0.00000000	      0.00000000	     13.35108962	    -19.83062803	    -11.63857940	     68.64129277	     47.28180860	      0.00000000	      0.00000000
     32.33857143	     -4.69675029	     -6.34192140	     -6.04118503	      1.03505024	      0.93575406	      0.41456283	     30.42192894	     -1.74638772	     -7.41583813	     32.79652831	     32.79652831	      0.00133322	     -6.68868727	     -2.11566289	      9.25823255	     -7.75306264	    -11.49387198	     18.86648937	     18.86648937	     14.40062147	    -13.90709583	      1.62034372	    -11.11111255	      6.14779250	      1.70874713	     -4.28874802	    -13.05815499	     -1.47994295	     29.68923870	     46.15607385	      0.00000000	      0.00000000	     13.89377578	    -19.91387017	    -12.24053710	     69.60319017	     47.34801828	      0.00000000	      0.00000000
     32.35228571	     -5.04309413	     -6.31695903	     -6.42752956	      1.03442510	      0.93503533	      0.41569853	     29.74551627	     -1.17239320	     -8.04099743	     27.60112497	     27.60112497	      0.16913888	     -3.84435669	     -1.94630121	      9.06639056	     -7.78981261	    -11.80459645	     18.60309550	     18.60309550	     14.55321361	    -13.93581944	      1.44031348	    -10.85338805	      6.16655656	      1.75073047	     -4.69121382	    -12.88282194	     -1.57938889	     29.77086846	     46.15485207	      0.00000000	      0.00000000	     14.37994535	    -20.04251125	    -12.68400006	     70.33740443	     47.39744514	      0.00000000	      0.00000000
